@startuml
skinparam style strictuml
skinparam classAttributeIconSize 0
skinparam classFontStyle Bold
hide enum methods

'namespace game
package game{

    'folder Enums
    package Enums{
        enum EnumTools{
            CHEBE
            LLEPE
            CHEPIO
            CHEFOUR
            TEAURA
            CHEHA
            CHETTEHA
            TEURTRAC
            SONNEUSEMOIS
            RISATEURPULVE
            DEUREPAN
            RUECHAR
            SEHER
        }

        enum EnumTypePlant{
            ELB
            EGRO
            AJOS
            AZLOC
            SIAM
            ECHAV
            ONTOUM
            ELUOP
            NIPAL
        }

        enum EnumTypePlot{
            DRY
            RADIOACTIVE
            RED
            GREEN
            BLUE
            MAGENTA
            CYAN
            LUCKY
            POISONOUS
        }
    }

    'folder Game
    package Game{
        class AllEvents {
            + allEventDico : Dictionary<String,EventInfo>

            + AllEvents()
            + getRandomEvent(day : Integer, impossibleEvents : Dictionary<EventInfo, Integer>): EventInfo
            - substractDico(dicoOrigin : Dictionary<String, EventInfo>, dicoSubstract : Dictionary<EventInfo, Integer>) : Dictionary<String, EventInfo>
            - stringInDicoKeys(toCheck : String, dicoSubstrac : Dictionary<EventInfo, Integer> ) : Boolean
        }

        AllEvents *--> " + allEventDico \n*" EventInfo : <<own>> >

        class AllPlot{
            + createPlot(typePlot : EnumTypePlot, currentPlant : EnumTypePlant) : Plot
            + getAllPlot() : EnumTypePlot[*]
        }

        class AllSeedPlant{
            - allPlantDico : Dictionary<EnumTypePlant,PlantInfo>

            + AllSeedPlant(allPlantDico : Dictionary<EnumTypePlant, PlantInfo>)
            + createPlant(typePlant : EnumTypePlant) : Plant
            + createSeed(typePlant : EnumTypePlant) : Seed
            + createPlantedPlant(typePlant : EnumTypePlant) : PlantedPlant
            + getAllPlantTypes() : EnumTypePlant[*]
            + ToString() : String
        }

        AllSeedPlant *--> " - allPlantDico \n*" PlantInfo : <<own>> >
        AllSeedPlant *-u-> " - allPlantDico \n*" EnumTypePlant : <<of type>> >

        class AllTools{
            - dicoTools : Dictionary<String, Tool>

            + AllTools(tools : Dictionary<String, Tool>)
            + AllTools()
            + getAllTools() : String[*]
            + ToString() : String
        }

        AllTools *--> " - dicoTools \n*" Tool : <<own>> >

        abstract class BasicItem{
            + id : Integer
            # itemName : String
            # description : String
            # imageLink : Sprite
            # weight : Integer
            # price : Integer

            + BasicItem()
            + BasicItem(paraId : Integer, paraName : String, paraDescription : String, paraImageLink : String)
            + getWeight() : Integer
            + getSprite() : Sprite
            + getDesc() : String
            + getName() : String
            + getId() : Integer
            + getPrice() : Integer
        }

        abstract class BasicPlant extends BasicItem{
            + BasicPlant()
            + BasicPlant(paraTypePlant : EnumTypePlant)
            + getTypePlante() : EnumTypePlant
        }

        BasicPlant *-u-> " # typePlante \n1" EnumTypePlant : <<of type>> >

        class CreateAllSeedPlant{
            + JSONSeedPlant : TextAsset
            + JSONTool : TextAsset 

            ~ Awake()
        }

        CreateAllSeedPlant *--> " + {static} mainInventory \n1" Inventory : <<fill>> >
        CreateAllSeedPlant *--> " + {static} shopInv \n1" Inventory : <<fill>> >
        CreateAllSeedPlant *--> " + {static} dicoPlant \n1" AllSeedPlant : <<fill>> >
        CreateAllSeedPlant *--> " + {static} dicoTool \n1" AllTools : <<fill>> >
        

        class EventInfo{
            + namee : String
            + description : String
            + length : Integer
            + mutliplierBase : double
            + multiplierProg : double
            + targetPlant : Boolean
            + targetSeed : Boolean
            + targetTool : Boolean
            + targetsPlant : EnumTypePlant[*]
            + targetsTool : String[*]
            + probability : Integer
            'Permet de dire qu'un event est dispo que a partir du mois 0, du 1, du 2....
            + unlockableAfter : Integer
            + imageLink : Sprite
            + cooldown : Integer

            + EventInfo( namee : String, description : String, length : Integer, mutliplier : double, mutliplierProg : double, targetPlant : Boolean, targetSeed : Boolean, targetTool : Boolean, targetsPlant : EnumTypePlant[*], targetsTool : String[*], probability : Integer, unlockableAfter : Integer, imageLink : Sprite, cooldown : Integer)
            + EventInfo()
            + getName() : String
            + getLenght : Integer
            + getDescription : String
            + getTarget() : String
            + ifTarget() : String
        }

        class Game{
            - money : Integer
            + {static} moneyObjective : Integer
            - totalMoneyEarned : Integer
            + moneyText : TextMeshProUGUI 

            ~ Start()
            + {static} getDefaultSprite() : Sprite
            + AddMoney(price : Integer)
            + SubsMoney(price : Integer)
            + testObjective()
            + endGame()
        }

        Game o--> " + classePopup \n1" PopUp : <<call>> >

        class Inventory{
            - weightMax : Integer
            - currentWeight : Integer

            + addToInventory(item : BasicItem, qtt : Integer)
            + addToInventory(item : BasicItem, qtt : Integer, dico Dictionary<BasicItem, Integer> )
            + removeFromInventory(item : BasicItem)
            + SubstractFromInventory(item : BasicItem, qttToRemove : Integer)
            + SubstractFromInventory((item : BasicItem, qttToRemove : Integer, dicoASoustraire : Dictionary<BasicItem, Integer>)
            + getInventory() : Dictionary<BasicItem, Integer>
            + getWeightMax() : Integer
            + getCurrentWeight() : Integer
            + boughtMoreSpace()
            + isDicoVide() : Boolean
            + displayInventory()
            + ToString() : String
        }

        Inventory *--> " - slots \n*" BasicItem : <<own>> >
        Inventory o--> " + panel \n1" InventoryInterface : <<call>> >

        interface InventoryInterface{
            + afficheInventory(dico : Dictionary<BasicItem, Integer>)
        }

        class InventoryPanel implements InventoryInterface{
            + slotPanel : Transform
            + moneyText : Transform

            ~ Start()
            + InventoryPanel(slotPanel : Transform)
            + InventoryPanel(slotPanel : Transform, panelAvecInfos : Transform)
            + afficheInventory(dico : Dictionary<BasicItem, Integer>)
            + afficheInventory(dico : Dictionary<BasicItem, Integer>, panelAInitialiser : Transform)
            + clearInventoryDisplay()
            + updateWeight(text : Transform)
            + affiche()
        }

        InventoryPanel ..> CreateAllSeedPlant : <<uses>> >

        class InventoryPlant extends Inventory{
            + PlantSlots : Dictionary<EnumTypePlant, Integer>

            + getNbrSlots(item : EnumTypePlant) : Integer
            + setNbrSlots(item : EnumTypePlant, number : Integer)
        }

        InventoryPlant *--> " + PlantSlots \n*" EnumTypePlant : <<of type>> >

        class InventorySlot{
            + {static} createSlot() : GameObject
        }

        class Market{
            - history : Dictionary<EnumTypePlant,Integer[*]>
            - activeEvents : Dictionary<EventInfo,Integer>
            - impossibleEvents : Dictionary<EventInfo,Integer>
            - actualDays : Integer

            ~ Awake()
            ~ Start()
            + createMarket()
            - nextActiveEvent()
            + getActiveEvents() : Dictionary<EventInfo, Integer>
            - nextImpossibleEvents()
            - generateNewHistoryDay(days : Integer, eventActiveON : Boolean)
            - plantByEvent(eventTemp : EventInfo, dureeMom : Integer, value : Integer) : Integer
            - plantBasic(plant : Plant, month : Integer, days : Integer) : Integer
            - ezRound(value : double) : Integer
            + normalise(val : double) : double
            + nextDay(days : Integer, eventON : Boolean) : EventInfo
            + getHistory() : Dictionary<EnumTypePlant, Integer[*]>
            + getLastPricePlant(plant : EnumTypePlant) : Integer
            + getLastPriceSeed(plant : EnumTypePlant) : Integer
            - createNewEvent(month : Integer) : EventInfo
            + last60Days(pl : EnumTypePlant) : Integer[*]
            + getDays() : Integer
            + afficheEtatDebug()
        }

        Market ..> Plant : <<uses>> >
        Market ..> Seed : <<uses>> >
        Market ..>  "activeEvents\n*" AllEvents : <<uses>> >
        Market ..> AllSeedPlant : <<uses>> >

        Market *--> " - history\n*" EnumTypePlant : <<of type>> >
        Market *--> " - activeEvents\n*" EventInfo : <<create>> >
        Market *--> " - impossibleEvents\n*" EventInfo : <<create>> >

        Market *-> "1\n{static} instace" Market : singleton

        class Notification{
            + SlotNotif : GameObject
            + slotPanel : Transform
            + slots : Dictionary<EventInfo, Integer>

            + clearInventoryDisplay()
            + afficheInventory()
        }
        
        Notification o--> " + nextDay\n1" NextDay : <<call>> >
        Notification o--> " - slots\n*" EventInfo : <<of type>> >
        Notification ..> AllEvents : <<defined by>> >

        class Plant extends BasicPlant{
            + basicPlantPrice : Integer[*]

            + Plant(paraTypePlant : EnumTypePlant, paraId : Integer, paraName : String, paraDescription : String, paraImageLink : Sprite, paraBasicPlantPrice : Integer[*], paraPlantWeight : Integer)
            + Plant()
            + getPrice(month : Integer) : Integer
        }
        
        Plant *--> " - typePlante\n1" EnumTypePlant : <<of type>> >

        class PlantedPlant extends BasicPlant{
            - spriteLinks : Sprite[*]
            - growthTime : Integer
            - nbPlantCollect : Integer

            + PlantedPlant(paraTypePlant : EnumTypePlant, paraGrowthTime : Integer)
            + PlantedPlant(paraTypePlant : EnumTypePlant, paraId : Integer, paraName : String, paraDescription : String, paraImageLink : Sprite, paraSpriteLinks : Sprite[*], paraGrowthTime : Integer)
            + PlantedPlant()
            + getSpriteLinks() : Sprite[*]
            + getGrowthTime() : Integer
            + getNbCollect() : Integer
        }

        class PlantInfo{
            - id : Integer
            - description : String
            - growthTime : Integer
            - seedSpriteLink : Sprite
            - plantSpriteLink : Sprite
            - plantedPlantSpriteLink : Sprite[*]
            - seedWeight : Integer
            - plantWeight : Integer
            - basicSeedPrice : Integer
            'the list is 12 long
            - basicPlantPrice : Integer[*]
            - nbPlantCollect : Integer

            + PlantInfo(id : Integer, namePlant : EnumTypePlant, description : String, growthTime : Integer, SeedSpriteLink : String, PlantSpriteLink : String, PlantedPlantSpriteLink : String, seedWeight : Integer, plantWeight : Integer, basicSeedPrice : Integer, basicPlantPrice : Integer[*], nbPlantCollect : Integer)
            + getId() : Integer
            + getEnum() : EnumTypePlant
            + getDesc() : String
            + getGrowth() : Integer
            + getSeedSprite() : Sprite
            + getPlantSprite() : Sprite
            + getPlantedPlantSprites() : Sprite[*]
            + getSeedWeight() : Integer
            + getPlantWeight() : Integer
            + getSeedPrice() : Integer
            + getPlantPrice() : Integer[*]
            + getNbCollect()
        }

        PlantInfo *--> " - namePlant\n1" EnumTypePlant : <<of type>> >

        class Plot extends BasicItem{
            - isPlanted : Boolean
            - timeGrown : Integer
            - capacity : Integer
            - number : Integer

            + Plot(paraTypePlot : EnumTypePlot, paraCurrentPlant : EnumTypePlant, paraTimeGrown : Integer, paraCapacity : Integer, paraNumber : Integer)
            + setIsPlanted(paraIsPlanted : Boolean) : Boolean
            + getTimeGrown() : Integer
            + getTypePlant() : EnumTypePlant
            + getCapacity() : Integer
            + getQuantitySeed() : Integer
            + growSeed()
            - changePlantSprite()
        }

        Plot *--> " - currentPlant\n1" EnumTypePlant : <<of type>> >
        Plot *--> " - typePlot\n1" EnumTypePlot : <<of type>> > 

        class PopUp{
            + text : TextMeshProUGUI
            + coroutine : IEnumerator 
            + isExecuting : Boolean 

            + setMessage(message : String)
            + message(msg : String)
        }

        class Seed extends BasicPlant{
            - timeGrowth : Integer

            + Seed()
            + Seed(paraTypePlant : EnumTypePlant, paraId : Integer, paraName : String, paraDescription : String, paraImagelink : Sprite, paraTimeGrowth : Integer, paraWeight : Integer, paraPrice : Integer)
            + getTimeGrowth() : Integer
        }

        class Shop{
            + inventory : Inventory
            + slots : Dictionary<BasicItem,Integer>

            + Shop()
        }

        Shop *..> " + slots\n*" BasicItem : <<own>> >
        Shop ..> AllSeedPlant : <<uses>> >
        Shop ..> Market : <<interact>> >

        class Stand{
            + Stand(Xinventory : InventoryPlant, Xgame : Game)
            + stock_sale(Xitem_sale : EnumTypePlant, Xitem_number : Integer, Xitem_price : Integer)
            + sell_stock() : Integer
            + add_price(price : Integer)
        }

        Stand o-> " - inventory\n1" Inventory : <<call>> >
        Stand o-> " - game\n1" Game : <<call>> >

        Stand *-> "1\n struct Item" struct_Item : <<uses / contains>> >

        class struct_Item {
            + item_number : Integer
            + item_price : Integer
        }

        struct_Item *--> " - item_sale\n1" EnumTypePlant : <<of type>> >

        abstract Tool extends BasicItem{
            + Tool()
            + Tool(paraPrice : Integer, name : String, id : Integer, description : String, imageLink : Sprite)
            + Tool(paraPrice : Integer, name : String, id : Integer, description : String, spriteLink : String)
        }

        Tool *--> EnumTools : <<of type>> >
    }
}
'folder HUD
package HUD{
    class ActivePanel{
        + PanelInventory : GameObject
        + PanelNotif : GameObject
        + panelAvecInfos : Transform

        ~ Start()
        + OpenPanel()
        + Affiche()
        + Affiche(panelAvecInfos : Transform)
    }

    ActivePanel *-> " - panel\n1" InventoryPanel : <<create>> >
    ActivePanel .up.> CreateAllSeedPlant : <<uses>> >

    class ButtonWeight{

        ~Start()
    }

    ButtonWeight o-up-> " + moneyStack\n1" Game : <<call>> >
    ButtonWeight .up.> CreateAllSeedPlant : <<uses>> >

    class BuyPlot{


        + open(plot : PlotEvents)
        + setPlot(plo : PlotEvents)
        + buyPlot()
    }

    BuyPlot o-up-> " + money\n1" Game : <<call>> >
    BuyPlot o-up-> " - plot\n1" PlotEvents : <<call>> >
    BuyPlot o-> " + popUp\n1" PopUp : <<call>> >

    class ChangeTextError{
        + textDesc : TextMeshProUGUI 
        + textTitle : TextMeshProUGUI 
        + changeText(title : String, desc : String)
    }

    class DropDownMarket{
        + dropdown : TMP_Dropdown

        ~ Start()
        + updateGraph(newIndex : Integer)
    }

    DropDownMarket o-up-> " + market\n1" Market : <<call>> >
    DropDownMarket o--> " + graphMarket\n1" GraphMarket : <<call>> >
    DropDownMarket *-up-> " - plTypeList\n1" EnumTypePlant : <<get all of>> >
    DropDownMarket .up.> CreateAllSeedPlant : <<uses>> >

    class GameStat{
        + {static} qttMoney : String
        + {static} nbDay : String
        + objective : TextMeshProUGUI 
        + moneyGained : TextMeshProUGUI 
        + nbDays : TextMeshProUGUI 

        ~ Start()
    }

    class GerePlant{
        - stockedQtt : Integer

        + getStockedItem() : BasicItem
        + getStockedQtt() : Integer
    }

    GerePlant o-up-> " + inventoryFunctions\n1" Inventory : <<own>> >
    GerePlant o-up-> " + StockedPlot\n1" PlotEvents : <<own>> >
    GerePlant o-up-> " - stockedItem\n1" BasicItem : <<own>> >
    

    class GraphMarket{
        - circleSprite : Sprite
        + graphContainer : RectTransform
        + labelTemplateY : TextMeshProUGUI
        + labelTemplateX : TextMeshProUGUI
        + dashTemplateY : RectTransform
        + dashTemplateX : RectTransform
        + market : Market
        + titre : TextMeshProUGUI
        + lastValueText : TextMeshProUGUI
        - yMaximum : float
        - xSize : float
        - xMaximum : float
        - graphHeight : float
        - yMin : float
        - numberOfDays : Integer
        - monthList : String[*]
        - mutlInvGraph = 2f
        - allChildsToSuppr : GameObject[*]

        ~ Awake()
        + affiche()
        ~ Update()
        + changePlant(pl : EnumTypePlant)
        - CreateCircle(anchoredPosition : Vector2) : GameObject
        - ShowGraph(valueList : Integer[*])
        - CreateDotConnection(dotPositionA : Vector2, dotPositionB : Vector2)
        - AngleBetweenVector2(vec1 : Vector2, vec2 : Vector2) : float
        - clearGraph()
    }

    GraphMarket *-up-> " - plantAct\n1" EnumTypePlant : <<currently displaying>> >
    GraphMarket o--> " + cam\n1" CameraMovement : <<enable and disable>> >
    GraphMarket o--> " + camZoom\n1" Zoom : <<enable and disable>> >

    class OpenCanvas{
        + thingsToHide : Transform[*]
        + thingsToShow : Transform[*]
        + isShown : Boolean
        + PanelPlotPlant : GameObject

        + inverseAffichage()
        + displayCanvasON(trans : Transform[*], state : Boolean)
    }

    OpenCanvas o--> " + cam\n1" CameraMovement : <<enable and disable>> >
    OpenCanvas o--> " + camZoom\n1" Zoom : <<enable and disable>> >

    class SlotInit{
        + item : BasicItem
        + qttSlot : Integer
        + panelInfosVente : Transform

        ~ OnMouseDown()
        + af(deuxInvs : ActivePanel[*], isStorage : Boolean)
    }

    SlotInit .up.> CreateAllSeedPlant : <<uses>> >

    class NotifPanel{
        + PanelInventory : GameObject
        + PanelNotif : GameObject
        + dico : Dictionary<EventInfo, Integer>
        + render : Transform 

        ~ Start()
        + OpenPanel()
    }

    NotifPanel o-up-> " + notif\n1" Notification : <<display>> >
    NotifPanel *-up-> " + dico\n*"  EventInfo : <<get>> >
}
'folder MainMenu
package MainMenu{
    class MainMenu{
        + mainMenu()
        + PlayGame()
        + QuitGame()
    }

    MainMenu *-d-> Game
}
'folder Map
package Map{
    class CameraMovement{
        - cam : Camera
        - dragOrigin : Vector3
        - zoom : float
        - minCamSize : float
        - maxCamSize : float
        - tilemapRenderer : SpriteRender
        - mapMinX : float
        - mapMaxX : float
        - mapMinY : float
        - mapMaxY : float
        - canMoove : Boolean

        ~ Awake()
        + playerCanMoove(state : Boolean)
        ~ Update()
        - PanCamera()
        - ClampCamera(targetPosition : Vector3) : Vector3
    }

    class GoBackTest{
        + {static} goMainMenu()
    }

    class Highlite{
        + sprite_highlight : Sprite
        + sprite : Sprite

        ~ OnMouseOver()
        ~ OnMouseExit()
    }

    class NextDay{
        + dayText : TextMeshProUGUI
        + plots : Transform
        - plotList : Transform[*]
        - nbrJour : Integer
        + {static} dicoPossessions : Dictionary<EventInfo, Integer>
        + render : Transform

        ~ Start()
        + {static} getInventoryNotif() : Dictionary<EventInfo, Integer>
        ~ OnMouseDown()
        + faitPousser()
        - GetPlots(parent : Transform)
        + addToInventory(item : EventInfo, duree : Integer)
        + removeFromInventory(item : EventInfo)
        + EventDay(nbrJour : Integer)
        + getNbJour() : Integer
    }

    NextDay o--> " + market\n1" Market : <<update>> >
    NextDay o--> " + notif\n1" Notification : <<update>> >
    NextDay o--> " + classePopup\n1" PopUp : <<call>> >
    NextDay *--> " + dicoPossessions\n*" EventInfo : <<current event>> >


    class OpenMarket{
        + canvas : Canvas
        + graphContainer : Transform 

        ~ OnMouseDown()
    }

    OpenMarket o--> " + openCanvasMarket\n1" OpenCanvas : <<display>> >
    OpenMarket o--> " + reafficheInvOnClickMarket\n1" InventoryPanel : <<start>> >

    class OpenShop{
        + canvas : Canvas

        ~ OnMouseDown()
    }

    OpenShop o--> " + OpenCanvasShop\n1" OpenCanvas : <<display>> >
    OpenShop o--> " + shop\n1" InventoryPanel : <<start>> >

    class PlotEvents{
        + isDesactive : Boolean
        + plot_sprite : Sprite
        + plot_sprite_highlite : Sprite
        - seed_sprite : Sprite
        - seed_sprite_grown : Sprite
        + PlotSupervisor : GameObject
        + InterfacePlantPanel : GameObject
        - growthTime : Integer
        - growthStatus : Integer
        - plotImage : Transform
        - seedImage : Transform
        - contientGraine : Boolean
        + buy : BuyPlot 

        ~ Start()
        + fairePousser()
        + recupPlante()
        + planteGraine()
        ~ OnMouseDown()
        - GetChildren(parent : Transform) : Transform[*]
        + openBuyPlot()
        + setPlotActive()
        ~ OnMouseOver()
        ~ OnMouseExit()
        
    }

    PlotEvents o--> " + hidesPanel\n1" OpenCanvas : <<display>> >
    PlotEvents *--> " - plantedPlant\n1" PlantedPlant : <<own>> >
    PlotEvents *--> " - itemDansPlot\n1" BasicItem : <<own>> >
    PlotEvents o--> " + error\n1" ChangeTextError : <<change text of>> >
    PlotEvents o--> " + errorDislp\n1" OpenCanvas : <<display>> >
    PlotEvents o--> " + reafficheInvOnClick\n1" InventoryPanel : <<start>> >
    PlotEvents ..> CreateAllSeedPlant : <<uses>> >

    class SellScript{
        + endValue : TextMeshProUGUI 
        + resValue : TextMeshProUGUI 
        + slider : Slider 
        - plantChoosed : EnumTypePlant 
        + transformRef : Transform 

        ~ Start()
        + changePlant(newPlant : EnumTypePlant)
        + changeMaxValue(maxValue : Integer)
        ~ valueChanged()
        + totalPrice() : IInteger
        + sell()
    }

    SellScript o--> " + classePopup\n1" PopUp : <<call>> >
    SellScript o--> " + market\n1" Market : <<call>> >
    SellScript ..> CreateAllSeedPlant : <<uses>> >

    class Zoom{
        - cam : Camera
        - zoom : float
        - minCamSize : float
        - maxCamSize : float
        - tilemapRenderer : SpriteRender
        - mapMinX : float
        - mapMaxX : float
        - mapMinY : float
        - mapMaxY : float
        - canMoove : Boolean

        ~ Awake()
        + playerCanMoove(state : Boolean)
        ~ Update()
        - ClampCamera(targetPosition : Vector3) : Vector3
    }
}

@enduml